<?xml version="1.0" encoding="utf-8"?>
<!-- Generator: Adobe Illustrator 21.1.0, SVG Export Plug-In . SVG Version: 6.00 Build 0)  -->
<svg version="1.1" id="Layer_1" xmlns="http://www.w3.org/2000/svg" xmlns:xlink="http://www.w3.org/1999/xlink" x="0px" y="0px"
	 viewBox="0 0 50 50" style="enable-background:new 0 0 50 50;" xml:space="preserve">
<style type="text/css">
	.st0{fill:#59103F;}
	.st1{fill:none;stroke:#FFFFFF;stroke-miterlimit:10;}
	.st2{fill:none;stroke:#8E2D66;stroke-miterlimit:10;}
	.st3{fill:#3F0226;}
	.st4{fill:#FFFFFF;}
</style>
<circle class="st0" cx="25.5" cy="25.5" r="22.5"/>
<circle class="st1" cx="25.5" cy="25.5" r="20.4"/>
<path class="st2" d="M210,149C210,149,210,149,210,149c-0.2-0.1-0.3-0.2-0.5-0.4C209.7,148.7,209.8,148.9,210,149z"/>
<path class="st3" d="M210,149C210,149,210,149,210,149c-0.2-0.1-0.3-0.2-0.5-0.4C209.7,148.7,209.8,148.9,210,149z"/>
<path class="st4" d="M34.3,18.4c2.1,0.6,3.8,0.7,5,0.7c0.2,0,0.3,0.2,0.2,0.4c-1,1.5-2.4,2.6-4.2,3.2c-1.9,0.6-3.8,0.6-5.5,0
	c-0.1,0-0.2-0.1-0.3-0.1c-0.1,0-0.1,0-0.2-0.1c0,0,0,0,0,0c-1.8-0.7-3.9-0.8-5.9-0.2c-0.5,0.2-1,0.4-1.4,0.6c-1.6,0.9-2.9,2.3-3.6,4
	c-0.1,0.2-0.4,0.2-0.5,0l-3.5-10.3c0-0.1,0-0.2,0-0.2c0.9-1.5,2.3-2.8,4.1-3.5c0.1-0.1,0.3-0.1,0.4-0.2c1.9-0.6,3.8-0.6,5.5,0
	c0.5,0.2,0.9,0.4,1.3,0.6c0.2,0.1,0.3,0.2,0.5,0.3c2,1.1,4.5,1.4,6.8,0.6c1.5-0.5,2.8-1.5,3.8-2.6c0.1-0.2,0.5-0.1,0.4,0.2
	c-0.1,2.2-2,4.9-2.9,5.6c-0.1,0.1-0.6,0.4-0.5,0.7C33.9,18.3,34.2,18.4,34.3,18.4z"/>
<path class="st4" d="M12.3,16.4c0.2,0.1,0.4,0.3,0.5,0.5l8.5,24.8c0.2,0.5-0.1,1-0.6,1.2c-0.5,0.2-1-0.1-1.2-0.6L11,17.5
	c-0.2-0.5,0.1-1,0.6-1.2C11.8,16.2,12.1,16.3,12.3,16.4z"/>
</svg>
